<svg width="34" height="35" viewBox="0 0 34 35" fill="none" xmlns="http://www.w3.org/2000/svg">
<g clip-path="url(#clip0_283_238)">
<path fill-rule="evenodd" clip-rule="evenodd" d="M17.0141 0.5C7.60573 0.5 0 8.1618 0 17.6405C0 25.2173 4.87325 31.6309 11.6337 33.9009C12.479 34.0716 12.7886 33.5321 12.7886 33.0783C12.7886 32.6809 12.7607 31.3189 12.7607 29.8997C8.02782 30.9215 7.04224 27.8564 7.04224 27.8564C6.28163 25.87 5.15465 25.3594 5.15465 25.3594C3.60557 24.3094 5.26749 24.3094 5.26749 24.3094C6.98582 24.4229 7.88747 26.0688 7.88747 26.0688C9.40834 28.6794 11.8591 27.9418 12.845 27.4876C12.9857 26.3809 13.4367 25.6147 13.9156 25.1891C10.1407 24.7917 6.16914 23.3161 6.16914 16.7322C6.16914 14.8593 6.84477 13.3269 7.91533 12.1351C7.74643 11.7096 7.15473 9.94978 8.08459 7.59448C8.08459 7.59448 9.52118 7.14034 12.7604 9.3539C14.1472 8.97871 15.5774 8.78784 17.0141 8.78623C18.4507 8.78623 19.9151 8.98509 21.2674 9.3539C24.507 7.14034 25.9435 7.59448 25.9435 7.59448C26.8734 9.94978 26.2814 11.7096 26.1125 12.1351C27.2112 13.3269 27.859 14.8593 27.859 16.7322C27.859 23.3161 23.8874 24.7632 20.0844 25.1891C20.7043 25.7282 21.2392 26.7497 21.2392 28.3674C21.2392 30.6659 21.2113 32.5106 21.2113 33.078C21.2113 33.5321 21.5213 34.0716 22.3662 33.9013C29.1267 31.6306 33.9999 25.2173 33.9999 17.6405C34.0278 8.1618 26.3942 0.5 17.0141 0.5Z" fill="white"/>
</g>
<defs>
<clipPath id="clip0_283_238">
<rect width="34" height="34" fill="white" transform="translate(0 0.5)"/>
</clipPath>
</defs>
</svg>
