<svg width="102" height="43" viewBox="0 0 102 43" fill="none" xmlns="http://www.w3.org/2000/svg">
<path d="M36.0433 5.97159C36.75 5.97159 37.3033 6.18492 37.7033 6.61159C38.11 7.03826 38.3133 7.62159 38.3133 8.36159V11.6316H36.3533V8.62159C36.3533 8.32159 36.27 8.08826 36.1033 7.92159C35.9366 7.75492 35.71 7.67159 35.4233 7.67159C35.1366 7.67159 34.91 7.75492 34.7433 7.92159C34.5766 8.08826 34.4933 8.32159 34.4933 8.62159V11.6316H32.5333V8.62159C32.5333 8.32159 32.45 8.08826 32.2833 7.92159C32.1233 7.75492 31.9 7.67159 31.6133 7.67159C31.32 7.67159 31.09 7.75492 30.9233 7.92159C30.7566 8.08826 30.6733 8.32159 30.6733 8.62159V11.6316H28.7133V6.02159H30.6733V6.76159C30.8466 6.52159 31.07 6.33159 31.3433 6.19159C31.6233 6.04492 31.9433 5.97159 32.3033 5.97159C32.7166 5.97159 33.0833 6.06159 33.4033 6.24159C33.73 6.42159 33.9866 6.67492 34.1733 7.00159C34.3733 6.69493 34.6366 6.44826 34.9633 6.26159C35.29 6.06826 35.65 5.97159 36.0433 5.97159ZM39.0671 8.82159C39.0671 8.24159 39.1705 7.73492 39.3771 7.30159C39.5905 6.86826 39.8771 6.53492 40.2371 6.30159C40.6038 6.06826 41.0105 5.95159 41.4571 5.95159C41.8438 5.95159 42.1771 6.02826 42.4571 6.18159C42.7371 6.33492 42.9538 6.54159 43.1071 6.80159V6.02159H45.0671V11.6316H43.1071V10.8516C42.9538 11.1116 42.7338 11.3183 42.4471 11.4716C42.1671 11.6249 41.8371 11.7016 41.4571 11.7016C41.0105 11.7016 40.6038 11.5849 40.2371 11.3516C39.8771 11.1183 39.5905 10.7849 39.3771 10.3516C39.1705 9.91159 39.0671 9.40159 39.0671 8.82159ZM43.1071 8.82159C43.1071 8.46159 43.0071 8.17826 42.8071 7.97159C42.6138 7.76492 42.3738 7.66159 42.0871 7.66159C41.7938 7.66159 41.5505 7.76492 41.3571 7.97159C41.1638 8.17159 41.0671 8.45492 41.0671 8.82159C41.0671 9.18159 41.1638 9.46826 41.3571 9.68159C41.5505 9.88826 41.7938 9.99159 42.0871 9.99159C42.3738 9.99159 42.6138 9.88826 42.8071 9.68159C43.0071 9.47493 43.1071 9.18826 43.1071 8.82159ZM45.864 8.82159C45.864 8.24159 45.9673 7.73492 46.174 7.30159C46.3873 6.86826 46.6773 6.53492 47.044 6.30159C47.4107 6.06826 47.8173 5.95159 48.264 5.95159C48.624 5.95159 48.944 6.02826 49.224 6.18159C49.5107 6.32826 49.734 6.53159 49.894 6.79159V4.23159H51.864V11.6316H49.894V10.8516C49.7407 11.1116 49.524 11.3183 49.244 11.4716C48.964 11.6249 48.634 11.7016 48.254 11.7016C47.8073 11.7016 47.4007 11.5849 47.034 11.3516C46.674 11.1183 46.3873 10.7849 46.174 10.3516C45.9673 9.91159 45.864 9.40159 45.864 8.82159ZM49.904 8.82159C49.904 8.46159 49.804 8.17826 49.604 7.97159C49.4107 7.76492 49.1707 7.66159 48.884 7.66159C48.5907 7.66159 48.3473 7.76492 48.154 7.97159C47.9607 8.17159 47.864 8.45492 47.864 8.82159C47.864 9.18159 47.9607 9.46826 48.154 9.68159C48.3473 9.88826 48.5907 9.99159 48.884 9.99159C49.1707 9.99159 49.4107 9.88826 49.604 9.68159C49.804 9.47493 49.904 9.18826 49.904 8.82159ZM58.3409 8.76159C58.3409 8.91493 58.3309 9.06826 58.3109 9.22159H54.6009C54.6209 9.52826 54.7042 9.75826 54.8509 9.91159C55.0042 10.0583 55.1975 10.1316 55.4309 10.1316C55.7575 10.1316 55.9909 9.98493 56.1309 9.69159H58.2209C58.1342 10.0783 57.9642 10.4249 57.7109 10.7316C57.4642 11.0316 57.1509 11.2683 56.7709 11.4416C56.3909 11.6149 55.9709 11.7016 55.5109 11.7016C54.9575 11.7016 54.4642 11.5849 54.0309 11.3516C53.6042 11.1183 53.2675 10.7849 53.0209 10.3516C52.7809 9.91826 52.6609 9.40826 52.6609 8.82159C52.6609 8.23492 52.7809 7.72826 53.0209 7.30159C53.2609 6.86826 53.5942 6.53492 54.0209 6.30159C54.4542 6.06826 54.9509 5.95159 55.5109 5.95159C56.0642 5.95159 56.5542 6.06492 56.9809 6.29159C57.4075 6.51826 57.7409 6.84493 57.9809 7.27159C58.2209 7.69159 58.3409 8.18826 58.3409 8.76159ZM56.3409 8.27159C56.3409 8.03159 56.2609 7.84493 56.1009 7.71159C55.9409 7.57159 55.7409 7.50159 55.5009 7.50159C55.2609 7.50159 55.0642 7.56826 54.9109 7.70159C54.7575 7.82826 54.6575 8.01826 54.6109 8.27159H56.3409ZM63.017 6.80159C63.1704 6.53493 63.387 6.32826 63.667 6.18159C63.947 6.02826 64.277 5.95159 64.657 5.95159C65.1037 5.95159 65.507 6.06826 65.867 6.30159C66.2337 6.53492 66.5204 6.86826 66.727 7.30159C66.9404 7.73492 67.047 8.24159 67.047 8.82159C67.047 9.40159 66.9404 9.91159 66.727 10.3516C66.5204 10.7849 66.2337 11.1183 65.867 11.3516C65.507 11.5849 65.1037 11.7016 64.657 11.7016C64.277 11.7016 63.947 11.6283 63.667 11.4816C63.387 11.3283 63.1704 11.1183 63.017 10.8516V11.6316H61.057V4.23159H63.017V6.80159ZM65.057 8.82159C65.057 8.45492 64.957 8.17159 64.757 7.97159C64.5637 7.76492 64.3237 7.66159 64.037 7.66159C63.7504 7.66159 63.507 7.76492 63.307 7.97159C63.1137 8.17826 63.017 8.46159 63.017 8.82159C63.017 9.18826 63.1137 9.47493 63.307 9.68159C63.507 9.88826 63.7504 9.99159 64.037 9.99159C64.3237 9.99159 64.5637 9.88826 64.757 9.68159C64.957 9.46826 65.057 9.18159 65.057 8.82159ZM73.8939 6.02159L70.3339 14.3016H68.2039L69.5439 11.3916L67.2439 6.02159H69.4239L70.6039 9.20159L71.7439 6.02159H73.8939Z" fill="white"/>
<path d="M17.7897 41.562H12.2941C12.0013 40.8478 11.709 40.1347 11.4168 39.4217C9.89583 35.7117 8.37427 32.0017 6.85764 28.2899C6.82872 28.2192 6.82749 28.1191 6.85333 28.0479C7.65195 25.8714 8.4561 23.6961 9.25903 21.5215C9.27564 21.476 9.29594 21.4312 9.33101 21.3464C12.1576 28.1026 14.9699 34.8225 17.7897 41.5614V41.562Z" fill="#FFD568"/>
<path d="M0.872591 41.562H1.44171C4.16181 35.0607 6.87514 28.5767 9.60138 22.0607C9.53555 21.8807 9.4691 21.7014 9.40265 21.5215C9.38604 21.476 9.36574 21.4318 9.33067 21.3464C6.50413 28.1026 3.69236 34.8231 0.872591 41.562Z" fill="#FFD568"/>
<g clip-path="url(#clip0_283_237)">
<path d="M1.42233 41.562H1.99145C4.71155 35.0607 7.42487 28.5767 10.1511 22.0607C10.0853 21.8807 10.0188 21.7014 9.95239 21.5215C9.93578 21.476 9.91548 21.4318 9.88041 21.3464C7.05387 28.1026 4.2421 34.8231 1.42233 41.562Z" fill="#FFD568"/>
</g>
<path d="M26.6862 41.5641H21.9399V21.3496H26.6862V41.5641Z" fill="#FFD568"/>
<path d="M30.3182 31.4465C30.981 31.5571 31.65 31.6383 32.3046 31.786C33.4755 32.0508 34.557 32.5173 35.5072 33.2769C36.2184 33.846 36.6397 34.5805 36.8786 35.4376C37.1144 36.2865 37.1679 37.1586 37.1955 38.0327C37.2201 38.8174 37.2175 39.6035 37.266 40.387C37.2886 40.7523 37.3823 41.1183 37.4816 41.4729C37.5565 41.7408 37.7552 41.925 38.0356 42.0363C37.9394 42.0483 37.8438 42.0646 37.7476 42.0703C36.7887 42.1281 35.8474 42.0734 34.9337 41.7276C33.8232 41.3069 33.1988 40.4932 32.9523 39.3614C32.8014 38.6684 32.7555 37.9635 32.7316 37.2567C32.7108 36.6449 32.7026 36.0318 32.6668 35.4206C32.6354 34.8716 32.5668 34.3233 32.3524 33.8102C32.1241 33.2637 31.7047 32.8644 31.2708 32.4821C30.7539 32.0269 30.1679 31.6898 29.4932 31.4829C29.5152 31.4634 29.5265 31.4446 29.5416 31.4408C30.2352 31.2597 30.7263 30.8132 31.1061 30.231C31.5796 29.5053 31.7972 28.6885 31.9041 27.8402C32.0185 26.9335 32.038 26.0242 31.9147 25.1156C31.8135 24.3723 31.6079 23.6598 31.2067 23.0197C30.6452 22.1237 29.8491 21.5558 28.799 21.3464C29.2479 21.3905 29.6988 21.4194 30.1453 21.4823C31.3658 21.6533 32.5486 21.9558 33.6358 22.5575C34.5281 23.0512 35.2506 23.7146 35.6744 24.6628C35.9932 25.3771 36.0838 26.1298 36.0203 26.9033C35.9788 27.4057 35.8901 27.8981 35.7008 28.3697C35.2927 29.3877 34.5778 30.1247 33.6144 30.6252C32.6574 31.1226 31.6267 31.3609 30.5565 31.4408C30.4748 31.4471 30.393 31.459 30.3113 31.4685C30.3138 31.4609 30.3163 31.454 30.3188 31.4465H30.3182Z" fill="#FFD568"/>
<path d="M49.5966 21.3488C49.5876 21.3729 49.5864 21.4061 49.5695 21.4199C49.1821 21.7423 48.9339 22.1664 48.7194 22.6098C48.2248 23.6298 47.9639 24.7203 47.782 25.8312C47.3669 28.367 47.3313 30.9215 47.4283 33.4807C47.482 34.9044 47.6175 36.3214 47.9031 37.7197C48.1133 38.7493 48.3935 39.756 48.9231 40.6766C49.096 40.9772 49.2839 41.267 49.5562 41.4917C49.5773 41.5092 49.5828 41.5454 49.5954 41.5731L49.5966 41.5743C49.2767 41.4315 48.9526 41.2965 48.6369 41.1453C47.0747 40.3965 45.7035 39.3903 44.569 38.0782C43.437 36.769 42.6839 35.2628 42.373 33.5591C42.0224 31.6372 42.1531 29.7454 42.8598 27.9091C43.3285 26.6915 44.0166 25.6113 44.8956 24.6504C46.1921 23.2334 47.7428 22.1754 49.4948 21.4025C49.5309 21.3868 49.5647 21.3651 49.5996 21.3464L49.5984 21.3494L49.5966 21.3488Z" fill="#FFD568"/>
<path d="M54.717 21.3507C55.7376 21.7827 56.6931 22.3297 57.5854 22.9864C58.974 24.0082 60.1217 25.2469 60.9489 26.7663C61.4978 27.7742 61.8556 28.8508 62.0231 29.9877C62.2888 31.7891 62.1322 33.5495 61.4737 35.2526C61.0146 36.4407 60.3302 37.492 59.4578 38.418C58.1643 39.7904 56.6232 40.8008 54.8785 41.5069C54.8212 41.5298 54.7556 41.5328 54.6941 41.5454L54.6905 41.5496C54.867 41.3671 55.0682 41.2032 55.2152 40.9996C55.6864 40.3441 55.9575 39.5952 56.1828 38.8271C56.4967 37.7559 56.6636 36.6576 56.7853 35.5509C56.9949 33.6374 57.0172 31.718 56.9564 29.7979C56.9022 28.0929 56.7533 26.3958 56.3569 24.7306C56.1479 23.8516 55.8834 22.9894 55.4104 22.2074C55.2309 21.9104 55.0297 21.6297 54.7532 21.4122C54.7375 21.3995 54.7309 21.3748 54.72 21.3561L54.717 21.3525V21.3507Z" fill="#FFD568"/>
<path d="M49.5984 21.3464C49.6015 21.3501 49.604 21.3551 49.6077 21.3563C49.6101 21.3569 49.6144 21.3526 49.6175 21.3507C49.6108 21.3507 49.604 21.3501 49.5966 21.3495L49.5978 21.3464H49.5984Z" fill="#FFD568"/>
<path d="M49.5942 41.5726C49.6034 41.5707 49.6126 41.5683 49.6225 41.5664C49.6133 41.5689 49.6046 41.5713 49.5954 41.5744L49.5942 41.5732V41.5726Z" fill="#FFD568"/>
<path d="M54.7201 21.3544L54.7091 21.3562C54.7091 21.3562 54.7171 21.3513 54.7171 21.3507L54.7201 21.3538V21.3544Z" fill="#FFD568"/>
<path d="M54.6947 41.5442C54.6947 41.5478 54.6947 41.5521 54.6947 41.5558C54.6935 41.5533 54.6923 41.5509 54.6911 41.5485L54.6947 41.5442Z" fill="#FFD568"/>
<path d="M83.2134 41.562H77.7178C77.425 40.8478 77.1327 40.1347 76.8405 39.4217C75.3195 35.7117 73.798 32.0017 72.2813 28.2899C72.2524 28.2192 72.2512 28.1191 72.277 28.0479C73.0757 25.8714 73.8798 23.6961 74.6827 21.5215C74.6993 21.476 74.7196 21.4312 74.7547 21.3464C77.5813 28.1026 80.3936 34.8225 83.2134 41.5614V41.562Z" fill="#FFD568"/>
<path d="M66.2963 41.562H66.8654C69.5855 35.0607 72.2988 28.5767 75.0251 22.0607C74.9593 21.8807 74.8928 21.7014 74.8264 21.5215C74.8097 21.476 74.7894 21.4318 74.7544 21.3464C71.9278 28.1026 69.1161 34.8231 66.2963 41.562Z" fill="#FFD568"/>
<g clip-path="url(#clip1_283_237)">
<path d="M66.846 41.562H67.4151C70.1352 35.0607 72.8486 28.5767 75.5748 22.0607C75.509 21.8807 75.4425 21.7014 75.3761 21.5215C75.3595 21.476 75.3392 21.4318 75.3041 21.3464C72.4776 28.1026 69.6658 34.8231 66.846 41.562Z" fill="#FFD568"/>
</g>
<path d="M87.3745 21.3496C87.5229 21.3496 87.6537 21.3496 87.7838 21.3496C89.0144 21.3496 90.2456 21.3515 91.4762 21.3464C91.5957 21.3464 91.6649 21.3867 91.7328 21.4804C94.8322 25.7613 97.9342 30.0411 101.033 34.322C101.081 34.3893 101.123 34.4805 101.124 34.5604C101.129 37.0152 101.127 39.4701 101.127 41.925V42.0527C101.066 41.976 101.029 41.932 100.994 41.8867C98.3008 38.3527 95.6069 34.8194 92.9137 31.2849C91.0927 28.8954 89.2722 26.5065 87.4537 24.1151C87.4097 24.0566 87.3675 23.9774 87.3675 23.9076C87.3619 23.0908 87.3638 22.2746 87.3644 21.4577C87.3644 21.4276 87.3694 21.3974 87.3745 21.3483V21.3496Z" fill="#FFD568"/>
<rect x="87.3636" y="23.1145" width="1.15496" height="18.4826" fill="#FFD568"/>
<rect x="99.9724" y="21.3464" width="1.15496" height="18.4826" fill="#FFD568"/>
<defs>
<clipPath id="clip0_283_237">
<rect width="8.73679" height="17.1959" fill="white" transform="translate(1.4119 24.3784)"/>
</clipPath>
<clipPath id="clip1_283_237">
<rect width="8.73679" height="17.1959" fill="white" transform="translate(66.8356 24.3784)"/>
</clipPath>
</defs>
</svg>
